<?xml version="1.0" encoding="UTF-8" standalone="no"?>
<!-- Created with Inkscape (http://www.inkscape.org/) -->

<svg
   width="15.114127mm"
   height="19.999998mm"
   viewBox="0 0 15.114127 19.999998"
   version="1.1"
   id="svg1"
   xml:space="preserve"
   inkscape:version="1.4.2 (ebf0e940d0, 2025-05-08)"
   sodipodi:docname="design_skelet.svg"
   xmlns:inkscape="http://www.inkscape.org/namespaces/inkscape"
   xmlns:sodipodi="http://sodipodi.sourceforge.net/DTD/sodipodi-0.dtd"
   xmlns="http://www.w3.org/2000/svg"
   xmlns:svg="http://www.w3.org/2000/svg"><sodipodi:namedview
     id="namedview1"
     pagecolor="#ffffff"
     bordercolor="#000000"
     borderopacity="0.25"
     inkscape:showpageshadow="2"
     inkscape:pageopacity="0.0"
     inkscape:pagecheckerboard="0"
     inkscape:deskcolor="#d1d1d1"
     inkscape:document-units="mm"
     inkscape:zoom="3.7070598"
     inkscape:cx="64.741335"
     inkscape:cy="138.51948"
     inkscape:window-width="1920"
     inkscape:window-height="1011"
     inkscape:window-x="0"
     inkscape:window-y="0"
     inkscape:window-maximized="1"
     inkscape:current-layer="svg1"
     showguides="false"><inkscape:page
       x="0"
       y="0"
       width="15.114127"
       height="19.999998"
       id="page2"
       margin="0"
       bleed="0" /></sodipodi:namedview><defs
     id="defs1"><linearGradient
       id="swatch54"
       inkscape:swatch="solid"><stop
         style="stop-color:#000000;stop-opacity:1;"
         offset="0"
         id="stop55" /></linearGradient></defs><g
     inkscape:groupmode="layer"
     id="layer2"
     inkscape:label="hour_display"
     transform="translate(3.0418479,-6.3949017)"
     style="display:inline;opacity:1;fill:#000000;fill-opacity:1;stroke:none;stroke-width:0.5;stroke-linecap:butt;stroke-linejoin:round;stroke-dasharray:none;stroke-dashoffset:0;paint-order:stroke markers fill"><g
       id="g4"
       transform="translate(-3.041847,6.3949043)"
       style="display:inline;fill:#000000;fill-opacity:1;stroke:none;stroke-width:0.5;stroke-linecap:butt;stroke-linejoin:round;stroke-dasharray:none;stroke-dashoffset:0;paint-order:stroke markers fill"><g
         inkscape:groupmode="layer"
         id="layer9"
         inkscape:label="goth_n_segment_0"
         style="display:inline;fill:#000000;fill-opacity:1;stroke:none;stroke-width:0.5;stroke-linecap:butt;stroke-linejoin:round;stroke-dasharray:none;stroke-dashoffset:0;stroke-opacity:1;paint-order:stroke markers fill"
         transform="translate(-32.538128,-102.45245)"
         inkscape:export-filename="../kicad/artsywatch/kicad/artsywatch/art/goth_segment_display_module.svg"
         inkscape:export-xdpi="2540"
         inkscape:export-ydpi="2540"><g
           id="g496"
           inkscape:label="central_surround_surround"
           style="fill:#000000;fill-opacity:1;stroke:none;stroke-width:0.180114;stroke-linecap:butt;stroke-linejoin:round;stroke-dasharray:none;stroke-dashoffset:0;stroke-opacity:1;paint-order:stroke markers fill"
           transform="matrix(2.7760196,0,0,2.7760196,-79.702805,-211.01701)"><path
             style="display:inline;opacity:1;fill:#000000;fill-opacity:1;stroke:none;stroke-width:0.180114;stroke-linecap:butt;stroke-linejoin:round;stroke-dasharray:none;stroke-dashoffset:0;stroke-opacity:1;paint-order:stroke markers fill"
             d="m 41.282825,116.67001 c 0,0 0.03959,0.17817 0.235246,0.16368 0.251261,-0.0186 0.865489,-0.17816 0.865489,-0.17816 l -7.9e-5,0.50558 c 0,0 -1.095535,0.30422 -1.091602,-0.0436 z"
             id="path69"
             sodipodi:nodetypes="cscccc"
             inkscape:label="central_surround_surround_lb" /><path
             style="display:inline;opacity:1;fill:#000000;fill-opacity:1;stroke:none;stroke-width:0.180114;stroke-linecap:butt;stroke-linejoin:round;stroke-dasharray:none;stroke-dashoffset:0;stroke-opacity:1;paint-order:stroke markers fill"
             d="m 45.029067,116.67001 c 0,0 -0.03959,0.17817 -0.235246,0.16368 -0.251261,-0.0186 -0.865489,-0.17816 -0.865489,-0.17816 l 7.9e-5,0.50558 c 0,0 1.095535,0.30422 1.091602,-0.0436 z"
             id="use71"
             sodipodi:nodetypes="cscccc"
             inkscape:label="central_surround_surround_lb" /><path
             style="display:inline;opacity:1;fill:#000000;fill-opacity:1;stroke:none;stroke-width:0.180114;stroke-linecap:butt;stroke-linejoin:round;stroke-dasharray:none;stroke-dashoffset:0;stroke-opacity:1;paint-order:stroke markers fill"
             d="m 41.282825,116.37625 c 0,0 0.03959,-0.17817 0.235246,-0.16368 0.251261,0.0186 0.865489,0.17816 0.865489,0.17816 l -7.9e-5,-0.50558 c 0,0 -1.095535,-0.30422 -1.091602,0.0436 z"
             id="use72"
             sodipodi:nodetypes="cscccc"
             inkscape:label="central_surround_surround_lb" /><path
             style="display:inline;opacity:1;fill:#000000;fill-opacity:1;stroke:none;stroke-width:0.180114;stroke-linecap:butt;stroke-linejoin:round;stroke-dasharray:none;stroke-dashoffset:0;stroke-opacity:1;paint-order:stroke markers fill"
             d="m 45.029067,116.37625 c 0,0 -0.03959,-0.17817 -0.235246,-0.16368 -0.251261,0.0186 -0.865489,0.17816 -0.865489,0.17816 l 7.9e-5,-0.50558 c 0,0 1.095535,-0.30422 1.091602,0.0436 z"
             id="use73"
             sodipodi:nodetypes="cscccc"
             inkscape:label="central_surround_surround_lb" /><path
             id="path74"
             style="display:inline;opacity:1;fill:#000000;fill-opacity:1;stroke:none;stroke-width:0.180114;stroke-linecap:butt;stroke-linejoin:round;stroke-dasharray:none;stroke-dashoffset:0;stroke-opacity:1;paint-order:stroke markers fill"
             d="m 41.49862,116.34447 c -0.183156,0.002 -0.214096,0.15959 -0.216989,0.17702 h -8.5e-4 c 0,0 3.96e-4,0.002 4.4e-4,0.002 -3.9e-5,2.7e-4 -4.4e-4,0.002 -4.4e-4,0.002 h 8.5e-4 c 0.0031,0.0189 0.03665,0.18543 0.236317,0.17614 0.223424,-0.0133 0.865322,-0.1779 0.865322,-0.1779 0,0 -0.641898,-0.16498 -0.865322,-0.17833 -0.0066,-3e-4 -0.01307,-5.1e-4 -0.01933,-4.4e-4 z"
             inkscape:label="central_surround_surround_ml" /><path
             id="use76"
             style="display:inline;opacity:1;fill:#000000;fill-opacity:1;stroke:none;stroke-width:0.180114;stroke-linecap:butt;stroke-linejoin:round;stroke-dasharray:none;stroke-dashoffset:0;stroke-opacity:1;paint-order:stroke markers fill"
             d="m 44.81327,116.34456 c 0.183156,0.002 0.214096,0.15959 0.216989,0.17702 h 8.5e-4 c 0,0 -3.96e-4,0.002 -4.4e-4,0.002 3.9e-5,2.7e-4 4.4e-4,0.002 4.4e-4,0.002 h -8.5e-4 c -0.0031,0.0189 -0.03665,0.18543 -0.236317,0.17614 -0.223424,-0.0133 -0.865322,-0.1779 -0.865322,-0.1779 0,0 0.641898,-0.16498 0.865322,-0.17833 0.0066,-3e-4 0.01307,-5.1e-4 0.01933,-4.4e-4 z"
             inkscape:label="central_surround_surround_ml" /></g><g
           id="g136"
           style="display:inline;fill:#000000;fill-opacity:1;stroke:none;stroke-width:0.180114;stroke-linecap:butt;stroke-linejoin:round;stroke-dasharray:none;stroke-dashoffset:0;stroke-opacity:1;paint-order:stroke markers fill"
           inkscape:label="central_surround"
           transform="matrix(2.7760196,0,0,2.7760196,-79.702805,-211.01701)"><path
             style="display:inline;opacity:1;fill:#000000;fill-opacity:1;stroke:none;stroke-width:0.180114;stroke-linecap:butt;stroke-linejoin:round;stroke-dasharray:none;stroke-dashoffset:0;stroke-opacity:1;paint-order:stroke markers fill"
             d="m 43.780644,115.89602 c 0,0 -0.287047,0.25279 -0.574094,0.25279 0.287047,0 0.574012,0.25278 0.574012,0.25278 v 0 z"
             id="use74"
             sodipodi:nodetypes="ccccc"
             inkscape:label="central_surround_lb" /><path
             style="display:inline;opacity:1;fill:#000000;fill-opacity:1;stroke:none;stroke-width:0.180114;stroke-linecap:butt;stroke-linejoin:round;stroke-dasharray:none;stroke-dashoffset:0;stroke-opacity:1;paint-order:stroke markers fill"
             d="m 42.531244,115.89602 c 0,0 0.287047,0.25279 0.574094,0.25279 -0.287047,0 -0.574012,0.25278 -0.574012,0.25278 v 0 z"
             id="use137"
             sodipodi:nodetypes="ccccc"
             inkscape:label="central_surround_lb" /><path
             style="display:inline;opacity:1;fill:#000000;fill-opacity:1;stroke:none;stroke-width:0.180114;stroke-linecap:butt;stroke-linejoin:round;stroke-dasharray:none;stroke-dashoffset:0;stroke-opacity:1;paint-order:stroke markers fill"
             d="m 43.780645,117.15024 c 0,0 -0.287047,-0.25279 -0.574094,-0.25279 0.287047,0 0.574012,-0.25278 0.574012,-0.25278 v 0 z"
             id="use136"
             sodipodi:nodetypes="ccccc"
             inkscape:label="central_surround_lb" /><path
             style="display:inline;opacity:1;fill:#000000;fill-opacity:1;stroke:none;stroke-width:0.180114;stroke-linecap:butt;stroke-linejoin:round;stroke-dasharray:none;stroke-dashoffset:0;stroke-opacity:1;paint-order:stroke markers fill"
             d="m 42.531244,117.15024 c 0,0 0.287047,-0.25279 0.574094,-0.25279 -0.287047,0 -0.574012,-0.25278 -0.574012,-0.25278 v 0 z"
             id="path73"
             sodipodi:nodetypes="ccccc"
             inkscape:label="central_surround_lb" /></g><g
           id="g495"
           inkscape:label="top_bottom"
           style="fill:#000000;fill-opacity:1;stroke:none;stroke-width:0.180114;stroke-linecap:butt;stroke-linejoin:round;stroke-dasharray:none;stroke-dashoffset:0;stroke-opacity:1;paint-order:stroke markers fill"
           transform="matrix(2.7760196,0,0,2.7760196,-79.702805,-211.07165)"><path
             style="display:inline;opacity:1;fill:#000000;fill-opacity:1;stroke:none;stroke-width:0.180114;stroke-linecap:butt;stroke-linejoin:round;stroke-dasharray:none;stroke-dashoffset:0;stroke-opacity:1;paint-order:stroke markers fill"
             d="m 43.191652,113.69868 c 0,0 0.806818,-0.40968 0.91246,-0.75852 0.732601,0.59133 1.772747,0.23855 1.772747,0.23855 -0.553692,1.0282 -2.327459,1.04991 -2.685207,0.51997 z"
             id="use80"
             sodipodi:nodetypes="cccc"
             inkscape:label="bot_l" /><path
             style="display:inline;opacity:1;fill:#000000;fill-opacity:1;stroke:none;stroke-width:0.180114;stroke-linecap:butt;stroke-linejoin:round;stroke-dasharray:none;stroke-dashoffset:0;stroke-opacity:1;paint-order:stroke markers fill"
             d="m 43.914191,112.95051 c -0.249657,0.42312 -1.966699,1.38575 -2.642616,1.02177 -0.165934,-0.0894 -0.189922,-0.58027 -0.189922,-0.58027 0,0 1.678101,0.56365 2.832538,-0.44148 z"
             id="use78"
             sodipodi:nodetypes="csccc"
             inkscape:label="bot_r" /><path
             style="display:inline;opacity:1;fill:#000000;fill-opacity:1;stroke:none;stroke-width:0.180114;stroke-linecap:butt;stroke-linejoin:round;stroke-dasharray:none;stroke-dashoffset:0;stroke-opacity:1;paint-order:stroke markers fill"
             d="m 42.383779,120.13357 c 0.249657,-0.42312 1.966699,-1.38575 2.642616,-1.02177 0.165934,0.0894 0.189922,0.58027 0.189922,0.58027 0,0 -1.678101,-0.56365 -2.832538,0.44148 z"
             id="path66"
             sodipodi:nodetypes="csccc"
             inkscape:label="bot_r" /><path
             style="display:inline;opacity:1;fill:#000000;fill-opacity:1;stroke:none;stroke-width:0.180114;stroke-linecap:butt;stroke-linejoin:round;stroke-dasharray:none;stroke-dashoffset:0;stroke-opacity:1;paint-order:stroke markers fill"
             d="m 43.117534,119.3862 c 0,0 -0.806818,0.40968 -0.91246,0.75852 -0.732601,-0.59133 -1.772747,-0.23855 -1.772747,-0.23855 0.553692,-1.0282 2.327459,-1.04991 2.685207,-0.51997 z"
             id="path67"
             sodipodi:nodetypes="cccc"
             inkscape:label="bot_l" /></g><g
           id="g494"
           inkscape:label="columns"
           style="display:inline;fill:#000000;fill-opacity:1;stroke:none;stroke-width:0.180114;stroke-linecap:butt;stroke-linejoin:round;stroke-dasharray:none;stroke-dashoffset:0;stroke-opacity:1;paint-order:stroke markers fill"
           transform="matrix(2.7760196,0,0,2.7760196,-79.702805,-211.01701)"><path
             style="display:inline;opacity:1;fill:#000000;fill-opacity:1;stroke:none;stroke-width:0.180114;stroke-linecap:butt;stroke-linejoin:round;stroke-dasharray:none;stroke-dashoffset:0;stroke-opacity:1;paint-order:stroke markers fill"
             d="m 45.019706,115.81667 c 0.0035,-0.32729 -0.969811,-0.0715 -1.091603,-0.0418 l 0.0091,-1.63822 c 0,0 0.494372,0.0763 1.088009,-0.14308 z"
             id="use81"
             sodipodi:nodetypes="ccccc"
             inkscape:label="column_lb" /><path
             style="display:inline;opacity:1;fill:#000000;fill-opacity:1;stroke:none;stroke-width:0.180114;stroke-linecap:butt;stroke-linejoin:round;stroke-dasharray:none;stroke-dashoffset:0;stroke-opacity:1;paint-order:stroke markers fill"
             d="m 41.295565,115.8199 c -0.0035,-0.32729 0.969811,-0.0715 1.091603,-0.0418 l -0.0032,-1.76215 c 0,0 -0.666945,0.27699 -1.094983,0.0673 z"
             id="use79"
             sodipodi:nodetypes="ccccc"
             inkscape:label="column_rb" /><path
             style="display:inline;opacity:1;fill:#000000;fill-opacity:1;stroke:none;stroke-width:0.180114;stroke-linecap:butt;stroke-linejoin:round;stroke-dasharray:none;stroke-dashoffset:0;stroke-opacity:1;paint-order:stroke markers fill"
             d="m 45.019815,117.22726 c 0.0035,0.32729 -0.969811,0.0715 -1.091603,0.0418 l 0.0032,1.76215 c 0,0 0.666945,-0.27699 1.094983,-0.0673 z"
             id="path68-1"
             sodipodi:nodetypes="ccccc"
             inkscape:label="column_rb" /><path
             style="display:inline;opacity:1;fill:#000000;fill-opacity:1;stroke:none;stroke-width:0.180114;stroke-linecap:butt;stroke-linejoin:round;stroke-dasharray:none;stroke-dashoffset:0;stroke-opacity:1;paint-order:stroke markers fill"
             d="m 41.292176,117.22869 c -0.0035,0.32729 0.969811,0.0715 1.091603,0.0418 l -0.0091,1.63822 c 0,0 -0.494372,-0.0763 -1.088009,0.14308 z"
             id="path68"
             sodipodi:nodetypes="ccccc"
             inkscape:label="column_lb" /></g><path
           id="path137"
           style="display:inline;opacity:1;fill:#000000;fill-opacity:1;stroke:none;stroke-width:0.5;stroke-linecap:butt;stroke-linejoin:round;stroke-miterlimit:0.9;stroke-dasharray:none;stroke-dashoffset:0;stroke-opacity:1;paint-order:stroke markers fill"
           d="m 39.986697,111.74532 c -0.219043,0.004 -0.748576,0.0915 -1.481528,0.70846 0.981887,0.82094 1.593709,0.70114 1.593709,0.70114 0,0 0.610608,0.11986 1.592493,-0.70114 -0.977267,-0.82253 -1.592493,-0.70234 -1.592493,-0.70234 0,0 -0.03916,-0.007 -0.112176,-0.007 z"
           inkscape:label="central" /></g></g></g></svg>
