<?xml version="1.0" encoding="UTF-8" standalone="no"?>
<!-- Created with Inkscape (http://www.inkscape.org/) -->

<svg
   width="16.725897mm"
   height="16.910606mm"
   viewBox="0 0 16.725897 16.910607"
   version="1.1"
   id="svg1"
   sodipodi:docname="kanji_poem.svg"
   inkscape:version="1.4.2 (ebf0e940d0, 2025-05-08)"
   xmlns:inkscape="http://www.inkscape.org/namespaces/inkscape"
   xmlns:sodipodi="http://sodipodi.sourceforge.net/DTD/sodipodi-0.dtd"
   xmlns="http://www.w3.org/2000/svg"
   xmlns:svg="http://www.w3.org/2000/svg">
  <sodipodi:namedview
     id="namedview1"
     pagecolor="#ffffff"
     bordercolor="#000000"
     borderopacity="0.25"
     inkscape:showpageshadow="2"
     inkscape:pageopacity="0.0"
     inkscape:pagecheckerboard="0"
     inkscape:deskcolor="#d1d1d1"
     inkscape:document-units="mm"
     inkscape:zoom="8"
     inkscape:cx="47.125"
     inkscape:cy="39.9375"
     inkscape:window-width="1920"
     inkscape:window-height="1011"
     inkscape:window-x="0"
     inkscape:window-y="0"
     inkscape:window-maximized="1"
     inkscape:current-layer="layer2"
     showguides="false">
    <inkscape:page
       x="0"
       y="4.430264e-23"
       width="16.725897"
       height="16.910608"
       id="page1"
       margin="0"
       bleed="0" />
  </sodipodi:namedview>
  <defs
     id="defs1" />
  <g
     inkscape:groupmode="layer"
     id="layer2"
     inkscape:label="1_row">
    <g
       id="text88"
       style="font-size:3.52778px;line-height:1.3;font-family:JiyunoTsubasaFont;-inkscape-font-specification:'JiyunoTsubasaFont, Normal';display:inline;fill:#ff0000;stroke-width:0.1;stroke-linecap:square;paint-order:stroke fill markers"
       inkscape:label="text_path"
       aria-label="有&#10;為&#10;転&#10;変">
      <path
         d="m 14.379785,1.653647 h 1.832792 V 1.1506627 h -1.832792 z m 0,0.141249 v 0.5167646 h 1.832792 V 1.794896 Z M 13.549517,1.9568156 13.470279,1.8086764 Q 13.84235,1.5330686 14.093842,1.2230098 14.345334,0.91295097 14.517589,0.51676473 h -0.964627 v -0.1481392 h 1.023194 Q 14.638167,0.22048633 14.703624,7.590279e-8 L 14.875879,0.02411576 q -0.06201,0.21359606 -0.110243,0.34450977 h 1.908584 v 0.1481392 H 14.703624 Q 14.589936,0.77859216 14.455577,1.0025235 h 1.936145 V 3.5381154 H 16.212577 V 2.4529096 h -1.832792 v 1.0852058 h -0.1757 V 1.3470333 q -0.282498,0.3376196 -0.654568,0.6097823 z"
         id="path88" />
      <path
         d="m 15.936969,5.750557 q 0.06201,-0.2549372 0.106798,-0.4754235 H 15.068805 Q 14.965452,5.5162904 14.834538,5.750557 Z m 0.382406,0.6476784 h 0.399631 V 8.1242293 H 16.546752 V 6.5463746 h -2.315106 q -0.316949,0.3272843 -0.68902,0.5856666 L 13.456499,6.9976824 Q 14.465913,6.2845472 14.886215,5.2751335 H 13.690766 V 5.1235492 h 0.633898 Q 14.204085,4.9168434 14.042166,4.6791316 l 0.158474,-0.065457 q 0.16881,0.2446019 0.316949,0.5098744 h 0.430637 q 0.106798,-0.2859431 0.15503,-0.5615509 l 0.168809,0.024116 q -0.05168,0.2687176 -0.144694,0.5374352 h 1.126547 q -0.05512,0.282498 -0.137804,0.6270078 h 0.341065 q -0.05512,0.3031686 -0.137804,0.6476783 z m -0.1757,0 Q 16.209132,6.1295178 16.253918,5.891806 H 14.751856 Q 14.579601,6.1570785 14.36945,6.3982354 Z M 13.84924,7.6660313 q 0.18259,-0.3961862 0.316949,-0.8888352 l 0.158475,0.041341 Q 14.183415,7.335302 14.004269,7.7314882 Z m 0.937067,-0.037896 Q 14.748411,7.2801804 14.651948,6.808202 l 0.155029,-0.027561 q 0.103353,0.4754235 0.141249,0.8268235 z m 0.689019,-0.1688098 q -0.07579,-0.3376196 -0.19637,-0.6821294 l 0.148139,-0.041341 q 0.130914,0.3686254 0.206706,0.6855744 z M 16.15401,7.2698451 q -0.106798,-0.2583823 -0.254937,-0.5271 l 0.141249,-0.065457 q 0.151585,0.2721627 0.258383,0.5374352 z"
         id="path89" />
      <path
         d="m 14.445242,10.657065 h 0.471978 v -0.440973 h -0.471978 z m 0,0.137804 v 0.468533 h 0.471978 v -0.468533 z m -0.640788,-0.137804 h 0.468533 v -0.440973 h -0.468533 z m 0,0.606337 h 0.468533 v -0.468533 h -0.468533 z m -0.151584,0.141249 v -1.329808 h 0.620117 V 9.7337788 h -0.71658 V 9.5890847 h 0.71658 V 9.2583553 h 0.172255 v 0.3307294 h 0.661459 v 0.1446941 h -0.661459 v 0.3410642 h 0.620118 v 1.329808 h -0.620118 v 0.341065 h 0.661459 v 0.148139 h -0.661459 v 0.816488 h -0.172255 v -0.816488 h -0.71658 v -0.148139 h 0.71658 V 11.404651 Z M 15.203163,9.5787494 V 9.42372 h 1.343589 v 0.1550294 z m 0.916396,1.4400506 0.151585,-0.04823 q 0.244602,0.616672 0.454753,1.326363 l -0.15503,0.04479 q -0.04134,-0.148139 -0.106798,-0.34451 -0.744141,0.172255 -1.192004,0.227376 l 0.0379,-0.168809 q 0.165364,-0.678685 0.310058,-1.546849 h -0.471978 v -0.15503 h 1.529623 v 0.15503 H 15.78883 q -0.148139,0.864719 -0.303168,1.522733 0.451307,-0.07235 0.933621,-0.179145 -0.151584,-0.458198 -0.299724,-0.833714 z"
         id="path90" />
      <path
         d="m 15.43054,15.27074 v -1.030085 h -0.52021 q -0.01378,0.416857 -0.161919,0.68902 -0.144695,0.268718 -0.475424,0.489204 l -0.117133,-0.113688 q 0.313504,-0.210151 0.444417,-0.447863 0.130914,-0.237712 0.141249,-0.616673 h -1.123101 v -0.151584 h 1.405599 v -0.330729 h 0.179145 v 0.330729 h 1.4056 v 0.151584 H 15.59935 v 1.030085 z m -1.729439,0.05857 -0.120579,-0.110243 q 0.444418,-0.323839 0.664904,-0.768257 l 0.151585,0.06201 q -0.227377,0.478869 -0.69591,0.816488 z m 2.067059,-0.795817 0.130913,-0.09302 q 0.427192,0.35829 0.751032,0.785482 l -0.130914,0.08957 Q 16.212577,14.909004 15.76816,14.533489 Z m -1.412491,1.381484 0.120579,-0.117133 q 0.285943,0.275607 0.692465,0.485758 0.461643,-0.234266 0.775147,-0.564996 h -1.495173 q -0.375516,0.310059 -0.785482,0.489204 l -0.07579,-0.137804 q 0.706245,-0.313504 1.092096,-0.785482 l 0.134358,0.07579 q -0.06546,0.08613 -0.199815,0.217041 h 1.543404 v 0.141249 q -0.306614,0.375516 -0.816489,0.651124 0.596002,0.279053 1.281577,0.385851 l -0.03445,0.155029 Q 15.843955,16.79692 15.16527,16.462745 14.500367,16.78314 13.639092,16.910608 l -0.03445,-0.155029 q 0.768257,-0.110243 1.388375,-0.385851 -0.389297,-0.220486 -0.637344,-0.454753 z"
         id="path91" />
    </g>
  </g>
  <g
     inkscape:groupmode="layer"
     id="layer3"
     inkscape:label="2_row">
    <g
       id="text60"
       style="font-size:3.52778px;line-height:1.3;font-family:JiyunoTsubasaFont;-inkscape-font-specification:'JiyunoTsubasaFont, Normal';display:inline;fill:#ff0000;stroke-width:0.1;stroke-linecap:square;paint-order:stroke fill markers"
       inkscape:label="text_path"
       aria-label="命&#10;短&#10;し">
      <path
         d="M 9.1989502,2.7801938 V 1.2298999 H 10.397844 V 2.7801938 Z M 10.232479,2.6286095 V 1.3814842 H 9.3643149 v 1.2471253 z m 1.57441,0.1929255 V 1.3435881 H 10.890493 V 3.4829938 H 10.718238 V 1.1954489 h 1.257461 V 2.821535 Z M 10.676897,-2.0954758e-8 Q 11.328021,0.51331954 12.17896,0.92673126 L 12.116948,1.0679803 Q 11.259119,0.65801364 10.566654,0.1136882 9.8741893,0.65801364 9.01636,1.0679803 L 8.9543482,0.92673126 Q 9.8052874,0.51331954 10.456411,-2.0954758e-8 Z M 9.6984893,0.91639597 v -0.1550294 h 1.7363297 v 0.1550294 z"
         id="path60" />
      <path
         d="m 10.42196,6.3258882 v -1.057645 h 1.560629 v 1.057645 z m 0.16881,-0.141249 h 1.216119 V 5.4129373 H 10.59077 Z M 9.0129149,6.0606157 V 5.9021412 H 9.6881541 V 5.0684276 H 9.4263266 Q 9.3057482,5.4611687 9.1507188,5.7712275 L 9.0060247,5.7057706 Q 9.2678521,5.2062315 9.3987658,4.5309923 l 0.1515843,0.027561 q -0.034451,0.2067057 -0.075792,0.35829 H 10.277266 V 5.0684276 H 9.8535187 V 5.9021412 H 10.322052 V 6.0606157 H 9.8500736 q -0.00345,0.065457 -0.017225,0.1757 0.2962784,0.4547529 0.5649954,0.916396 l -0.124023,0.106798 Q 10.025774,6.8288725 9.7949521,6.460247 9.7122697,6.846098 9.5331247,7.1561568 9.3574247,7.4662156 9.1128227,7.6488057 L 9.0060247,7.5144469 Q 9.2919678,7.2974058 9.4711129,6.9149999 9.650258,6.529149 9.6812639,6.0606157 Z M 10.332387,4.8996178 V 4.7445884 h 1.76389 v 0.1550294 z m 0.217041,1.6398665 0.15503,-0.055122 q 0.186035,0.4099666 0.313504,0.844049 l -0.158475,0.044786 Q 10.732019,6.9494509 10.549428,6.5394843 Z M 10.23937,7.6143548 V 7.4593254 h 1.088651 Q 11.572622,7.021798 11.696646,6.4774725 l 0.16192,0.041341 q -0.106798,0.4995392 -0.347955,0.9405117 h 0.620117 v 0.1550294 z"
         id="path61" />
      <path
         d="m 9.7846168,9.3134768 q -0.037896,0.9715172 -0.037896,1.6088602 0,0.358291 0.044786,0.582222 0.044786,0.223931 0.1446941,0.34451 0.1033531,0.120578 0.2377121,0.161919 0.134359,0.04134 0.3514,0.04134 0.389296,0 0.71658,-0.296278 0.330729,-0.296278 0.530545,-0.840604 l 0.15503,0.06201 q -0.217042,0.596002 -0.585667,0.919841 -0.368626,0.320394 -0.816488,0.320394 -0.5374356,0 -0.7475866,-0.282498 -0.2067059,-0.282498 -0.2067059,-1.012859 0,-0.689019 0.037896,-1.6123053 z"
         id="path62" />
    </g>
  </g>
  <g
     inkscape:groupmode="layer"
     id="layer4"
     inkscape:label="3_row">
    <g
       id="text55"
       style="font-size:3.52778px;line-height:1.3;font-family:JiyunoTsubasaFont;-inkscape-font-specification:'JiyunoTsubasaFont, Normal';fill:#ff0000;stroke-width:0.1;stroke-linecap:square;paint-order:stroke fill markers"
       inkscape:label="text_path"
       aria-label="日&#10;進&#10;月&#10;歩">
      <path
         d="M 5.0292507,1.4055999 V 2.573488 H 7.082529 V 1.4055999 Z m 0,-0.1550294 H 7.082529 V 0.15502943 H 5.0292507 Z M 4.8569958,2.8405339e-8 h 2.397788 V 2.7285174 h -2.397788 z"
         id="path55" />
      <path
         d="M 6.520978,5.6230883 H 5.780282 v 0.492649 H 6.520978 Z M 5.780282,4.9995257 V 5.4818393 H 6.520978 V 4.9995257 Z M 5.773392,4.4104139 5.9353116,4.4414199 Q 5.8905252,4.6136747 5.8043977,4.8513865 H 6.555429 Q 6.6450016,4.6687963 6.7276839,4.4104139 l 0.1584745,0.031006 Q 6.8207015,4.6377904 6.7276839,4.8513865 h 0.775147 V 4.9995257 H 6.6828976 v 0.4823136 h 0.7475862 v 0.141249 H 6.6828976 v 0.492649 h 0.7475862 v 0.141249 H 6.6828976 V 6.7634157 H 7.5545073 V 6.9081098 H 5.6114722 V 5.2303472 Q 5.4805585,5.5094001 5.3186389,5.716106 L 5.1946154,5.5920825 Q 5.5839115,5.0925433 5.773392,4.4104139 Z m 0.00689,2.3530018 H 6.520978 V 6.2569863 H 5.780282 Z M 5.2531821,5.1752256 5.1360488,5.2785786 Q 4.8569958,4.9616296 4.5607174,4.6687963 L 4.6778508,4.5619982 Q 5.0085801,4.8961727 5.2531821,5.1752256 Z M 4.4918155,5.8022334 H 5.180835 v 1.0748705 q 0.1481392,0.2687176 0.4134118,0.3651804 0.2652725,0.096463 0.8681646,0.096463 h 1.129992 l -0.00689,0.1515843 h -1.129992 q -0.5925568,0 -0.8922803,-0.099908 Q 5.2669625,7.2939607 5.180835,7.1148157 V 7.9106332 H 5.0120252 V 5.9538177 H 4.4918155 Z"
         id="path56" />
      <path
         d="m 5.1704997,10.11963 v 0.740696 H 7.082529 V 10.11963 Z m 0,-0.1515846 H 7.082529 V 9.2893612 H 5.1704997 Z m 0,2.5287016 H 4.9982448 V 9.1343318 h 2.256539 V 12.496747 H 7.082529 V 11.008465 H 5.1704997 Z"
         id="path57" />
      <path
         d="m 7.5889583,14.564495 v 0.151584 H 6.166133 v 1.395264 h -0.1757 V 14.716079 H 4.5228214 v -0.151584 h 0.5960019 v -0.830269 h 0.1688098 v 0.830269 H 5.990433 v -0.971518 h 0.1757 v 0.35829 h 1.1885587 v 0.148139 H 6.166133 v 0.465089 z M 5.322084,14.884889 q -0.213596,0.55466 -0.6580136,0.992188 L 4.5400469,15.770279 q 0.4203019,-0.420302 0.6338979,-0.947402 z m 1.4366058,0.02067 0.1274686,-0.09646 q 0.4030764,0.396186 0.7027999,0.850939 L 7.4580446,15.742718 7.3546917,15.598024 Q 6.4451859,16.53509 4.6675155,16.734906 L 4.6227292,16.579877 Q 6.3659486,16.386951 7.2582289,15.470555 7.0274074,15.170832 6.7586898,14.905559 Z"
         id="path58" />
    </g>
  </g>
  <g
     inkscape:groupmode="layer"
     id="layer5"
     inkscape:label="4_row"
     style="display:inline">
    <g
       id="text50"
       style="font-size:3.52778px;line-height:1.3;font-family:JiyunoTsubasaFont;-inkscape-font-specification:'JiyunoTsubasaFont, Normal';fill:#ff0000;stroke-width:0.1;stroke-linecap:square;paint-order:stroke fill markers"
       inkscape:label="text_path"
       aria-label="光&#10;明">
      <path
         d="m 2.8628762,1.9499253 0.1722549,0.010335 q -0.00689,0.1860353 -0.010335,0.2756078 0,0.086127 -0.010335,0.2135961 -0.010335,0.1274686 -0.017226,0.1757 -0.00689,0.048231 -0.027561,0.1274686 -0.020671,0.079237 -0.037896,0.099908 -0.017225,0.020671 -0.062012,0.062012 -0.044786,0.044786 -0.079237,0.048231 -0.034451,0.00689 -0.1067981,0.020671 -0.072347,0.01378 -0.1378039,0.01378 -0.062012,0 -0.1688098,0 -0.389296,0 -0.4857587,-0.051676 Q 1.7948959,2.8938821 1.7948959,2.680286 V 1.446941 H 1.126547 V 3.4519879 H 0.95429207 V 1.446941 H 0 V 1.2953567 H 1.3814842 V 0 H 1.5606293 V 1.2953567 H 2.9421135 V 1.446941 H 1.9705959 v 1.2092293 q 0,0.062012 0.00345,0.089573 0.00689,0.027561 0.020671,0.055121 0.017225,0.024116 0.068902,0.031006 0.055122,0.00345 0.1171334,0.00689 0.065457,0.00345 0.2101509,0.00345 0.3376196,0 0.3961863,-0.1102431 Q 2.8456565,2.6217241 2.8628815,1.94993 Z M 0.34795488,0.20670586 0.9095058,1.0748705 0.7648117,1.1541077 0.20326077,0.28938821 Z m 2.39434292,0.068902 Q 2.5149213,0.73725091 2.1773018,1.1575528 L 2.0360528,1.0714254 Q 2.3736723,0.64767837 2.5907135,0.20326076 Z"
         id="path50" />
      <path
         d="m 1.7018783,5.6782099 v 0.3513999 q 0,0.1860353 -0.020671,0.385851 H 2.7181821 V 5.6782099 Z m 0,-0.1515843 H 2.7181821 V 4.8513864 H 1.7018783 Z M 0.04823137,6.8150921 V 4.7618139 H 1.1747783 V 6.8150921 Z M 0.21704116,5.8366844 V 6.6635078 H 1.0128587 V 5.8366844 Z m 0,-0.1550294 H 1.0128587 V 4.9202884 H 0.21704116 Z M 2.7181821,8.0381018 V 6.5636 H 1.6639822 Q 1.5675195,7.2422842 1.0989862,7.6901469 L 0.97840776,7.5764587 Q 1.2850215,7.2801803 1.409045,6.9218902 1.5330685,6.5601549 1.5330685,5.9675981 V 4.696357 H 2.890437 v 3.3417448 z"
         id="path52" />
    </g>
  </g>
</svg>
