<?xml version="1.0" encoding="UTF-8" standalone="no"?>
<!-- Created with Inkscape (http://www.inkscape.org/) -->

<svg
   width="16.725897mm"
   height="17.210255mm"
   viewBox="0 0 16.725897 17.210255"
   version="1.1"
   id="svg1"
   sodipodi:docname="kanji_poem.svg"
   inkscape:version="1.4.2 (ebf0e940d0, 2025-05-08)"
   xmlns:inkscape="http://www.inkscape.org/namespaces/inkscape"
   xmlns:sodipodi="http://sodipodi.sourceforge.net/DTD/sodipodi-0.dtd"
   xmlns="http://www.w3.org/2000/svg"
   xmlns:svg="http://www.w3.org/2000/svg">
  <sodipodi:namedview
     id="namedview1"
     pagecolor="#ffffff"
     bordercolor="#000000"
     borderopacity="0.25"
     inkscape:showpageshadow="2"
     inkscape:pageopacity="0.0"
     inkscape:pagecheckerboard="0"
     inkscape:deskcolor="#d1d1d1"
     inkscape:document-units="mm"
     inkscape:zoom="10.12294"
     inkscape:cx="28.351448"
     inkscape:cy="38.279394"
     inkscape:window-width="1920"
     inkscape:window-height="1011"
     inkscape:window-x="0"
     inkscape:window-y="0"
     inkscape:window-maximized="1"
     inkscape:current-layer="layer1"
     showguides="false">
    <inkscape:page
       x="0"
       y="0"
       width="16.725897"
       height="17.210255"
       id="page2"
       margin="0"
       bleed="0" />
  </sodipodi:namedview>
  <defs
     id="defs1" />
  <text
     xml:space="preserve"
     style="font-size:0.55739px;line-height:1.3;font-family:'English Towne';-inkscape-font-specification:'English Towne, Normal';text-align:start;writing-mode:lr-tb;direction:ltr;text-anchor:start;display:inline;fill:#ff0000;fill-opacity:1;stroke:none;stroke-width:0.1;stroke-linecap:square;stroke-miterlimit:4;stroke-dasharray:none;stroke-opacity:1;paint-order:stroke fill markers"
     x="56.404308"
     y="63.248348"
     id="text1"
     sodipodi:insensitive="true"
     transform="translate(-56.555891,-60.416474)"
     inkscape:label="text_copy"><tspan
       sodipodi:role="line"
       id="tspan1"
       style="font-style:normal;font-variant:normal;font-weight:normal;font-stretch:normal;font-size:3.52778px;line-height:1.3;font-family:JiyunoTsubasaFont;-inkscape-font-specification:'JiyunoTsubasaFont, Normal';font-variant-ligatures:normal;font-variant-caps:normal;font-variant-numeric:normal;font-variant-east-asian:normal;stroke:none;stroke-width:0.1;stroke-opacity:1"
       x="56.404308"
       y="63.248348">光 明</tspan><tspan
       sodipodi:role="line"
       style="font-style:normal;font-variant:normal;font-weight:normal;font-stretch:normal;font-size:3.52778px;line-height:1.3;font-family:JiyunoTsubasaFont;-inkscape-font-specification:'JiyunoTsubasaFont, Normal';font-variant-ligatures:normal;font-variant-caps:normal;font-variant-numeric:normal;font-variant-east-asian:normal;stroke:none;stroke-width:0.1;stroke-opacity:1"
       x="56.404308"
       y="67.834465"
       id="tspan2">日 進 月 歩</tspan><tspan
       sodipodi:role="line"
       style="font-style:normal;font-variant:normal;font-weight:normal;font-stretch:normal;font-size:3.52778px;line-height:1.3;font-family:JiyunoTsubasaFont;-inkscape-font-specification:'JiyunoTsubasaFont, Normal';font-variant-ligatures:normal;font-variant-caps:normal;font-variant-numeric:normal;font-variant-east-asian:normal;stroke:none;stroke-width:0.1;stroke-opacity:1"
       x="56.404308"
       y="72.420578"
       id="tspan3">命 短 し</tspan><tspan
       sodipodi:role="line"
       style="font-style:normal;font-variant:normal;font-weight:normal;font-stretch:normal;font-size:3.52778px;line-height:1.3;font-family:JiyunoTsubasaFont;-inkscape-font-specification:'JiyunoTsubasaFont, Normal';font-variant-ligatures:normal;font-variant-caps:normal;font-variant-numeric:normal;font-variant-east-asian:normal;stroke:none;stroke-width:0.1;stroke-opacity:1"
       x="56.404308"
       y="77.006691"
       id="tspan4">時 大 切 に</tspan></text>
  <g
     inkscape:label="outlines"
     inkscape:groupmode="layer"
     id="layer1"
     transform="translate(-56.555892,-60.416475)"
     inkscape:export-filename="kanji_poem_outline.svg"
     inkscape:export-xdpi="2540"
     inkscape:export-ydpi="2540"
     style="display:none">
    <path
       style="font-size:13.3333px;line-height:1.3;font-family:JiyunoTsubasaFont;-inkscape-font-specification:'JiyunoTsubasaFont, Normal';white-space:pre;display:none;stroke-width:0.377953;stroke-linecap:square;stroke-miterlimit:4.1;paint-order:fill markers stroke"
       d="m 225.10869,235.71547 0.65104,0.0391 q -0.026,0.70313 -0.0391,1.04167 0,0.32552 -0.0391,0.80729 -0.0391,0.48177 -0.0651,0.66406 -0.026,0.18229 -0.10417,0.48177 -0.0781,0.29948 -0.14323,0.3776 -0.0651,0.0781 -0.23437,0.23437 -0.16927,0.16927 -0.29948,0.1823 -0.13021,0.026 -0.40365,0.0781 -0.27343,0.0521 -0.52083,0.0521 -0.23437,0 -0.63802,0 -1.47135,0 -1.83593,-0.19531 -0.36458,-0.19531 -0.36458,-1.0026 v -4.66145 h -2.52604 v 7.57811 h -0.65104 v -7.57811 h -3.60676 v -0.57291 h 5.22134 v -4.89582 h 0.67708 v 4.89582 h 5.22134 v 0.57291 h -3.67186 v 4.5703 q 0,0.23438 0.013,0.33855 0.026,0.10416 0.0781,0.20833 0.0651,0.0911 0.26042,0.11719 0.20833,0.013 0.44271,0.026 0.24739,0.013 0.79426,0.013 1.27604,0 1.4974,-0.41667 0.22135,-0.41666 0.28645,-2.95572 z m -9.50518,-6.58852 2.12239,3.28124 -0.54687,0.29948 -2.12239,-3.26823 z m 9.04946,0.26041 q -0.85938,1.74479 -2.13542,3.33333 l -0.53385,-0.32552 q 1.27604,-1.60156 2.09635,-3.28125 z m 13.17705,3.08593 v 1.32812 q 0,0.70313 -0.0781,1.45833 h 3.91926 v -2.78645 z m 0,-0.57291 h 3.84113 v -2.55208 h -3.84113 z m -6.24999,4.86978 v -7.7604 h 4.2578 v 7.7604 z m 0.63802,-3.69791 v 3.12499 h 3.00781 v -3.12499 z m 0,-0.58594 h 3.00781 v -2.8776 h -3.00781 z m 9.4531,8.90623 v -5.5729 h -3.98436 q -0.36459,2.56509 -2.13541,4.2578 l -0.45573,-0.42969 q 1.15885,-1.11979 1.6276,-2.47395 0.46875,-1.36718 0.46875,-3.60676 v -4.80468 h 5.13019 v 12.63018 z m -25.70306,10.0807 v 4.41405 h 7.7604 v -4.41405 z m 0,-0.58594 h 7.7604 v -4.14061 h -7.7604 z m -0.65104,-4.72655 h 9.06248 v 10.31247 h -9.06248 z m 23.39838,3.91926 h -2.79947 v 1.86197 h 2.79947 z m -2.79947,-2.35676 v 1.82291 h 2.79947 v -1.82291 z m -0.026,-2.22656 0.61197,0.11719 q -0.16927,0.65104 -0.49479,1.54947 h 2.83854 q 0.33854,-0.6901 0.65104,-1.66666 l 0.59895,0.11719 q -0.24739,0.74218 -0.59895,1.54947 h 2.92968 v 0.5599 h -3.09895 v 1.82291 h 2.82551 v 0.53385 h -2.82551 v 1.86197 h 2.82551 v 0.53386 h -2.82551 v 1.91406 h 3.29426 v 0.54687 h -7.34373 v -6.34113 q -0.49479,1.05468 -1.10677,1.83593 l -0.46875,-0.46875 q 1.47135,-1.88801 2.1875,-4.46613 z m 0.026,8.89321 h 2.79947 v -1.91406 h -2.79947 z m -1.99218,-6.00259 -0.44271,0.39062 q -1.05469,-1.19791 -2.17448,-2.30468 l 0.44271,-0.40365 q 1.25,1.26302 2.17448,2.31771 z m -2.8776,2.36978 h 2.60416 v 4.06249 q 0.55989,1.01562 1.56249,1.38021 1.00261,0.36458 3.28125,0.36458 h 4.27082 l -0.026,0.57291 h -4.27083 q -2.23957,0 -3.37238,-0.3776 -1.11979,-0.36458 -1.44531,-1.04166 v 3.0078 h -0.63802 v -7.39581 h -1.96614 z m 19.67443,-1.01562 v 2.79947 h 7.22654 v -2.79947 z m 0,-0.57292 h 7.22654 v -2.56509 h -7.22654 z m 0,9.55727 h -0.65104 v -12.7083 h 8.52862 v 12.7083 h -0.65104 v -5.62498 h -7.22654 z m 26.24993,-9.5182 v 0.57291 h -5.37759 v 5.27343 h -0.66406 v -5.27343 h -5.54686 v -0.57291 h 2.2526 v -3.13802 h 0.63802 v 3.13802 h 2.65624 v -3.67187 h 0.66406 v 1.35416 h 4.49218 v 0.5599 h -4.49218 v 1.75781 z m -8.56768,1.21093 q -0.80729,2.09635 -2.48698,3.74999 l -0.46875,-0.40364 q 1.58854,-1.58854 2.39583,-3.58072 z m 5.42967,0.0781 0.48177,-0.36459 q 1.52343,1.4974 2.65624,3.21614 l -0.49479,0.3125 -0.39062,-0.54687 q -3.43749,3.54165 -10.15623,4.29686 l -0.16927,-0.58594 q 6.58853,-0.72916 9.96092,-4.19269 -0.8724,-1.13281 -1.88802,-2.13541 z m -59.1535,22.90618 v -5.85936 h 4.53124 v 5.85936 z m 3.90624,-0.57291 v -4.71353 h -3.28124 v 4.71353 z m 5.95051,0.72916 v -5.58592 h -3.46353 v 8.08591 h -0.65104 v -8.64581 h 4.75259 v 6.14582 z m -4.27082,-10.66404 q 2.46093,1.9401 5.67707,3.5026 l -0.23438,0.53385 q -3.24218,-1.54947 -5.85936,-3.60676 -2.61718,2.05729 -5.85936,3.60676 l -0.23437,-0.53385 q 3.21613,-1.5625 5.67706,-3.5026 z m -3.69791,3.46354 v -0.58594 h 6.56248 v 0.58594 z m 19.8437,3.11197 v -3.99739 h 5.89842 v 3.99739 z m 0.63802,-0.53385 h 4.59634 v -2.91666 h -4.59634 z m -5.96353,-0.46875 v -0.59896 h 2.55208 v -3.15103 h -0.98958 q -0.45573,1.48437 -1.04167,2.65624 l -0.54687,-0.24739 q 0.98958,-1.88802 1.48437,-4.4401 l 0.57292,0.10417 q -0.13021,0.78125 -0.28646,1.35416 h 3.03384 v 0.57292 h -1.60155 v 3.15103 h 1.77082 v 0.59896 h -1.78384 q -0.013,0.24739 -0.0651,0.66406 1.11979,1.71874 2.13541,3.46353 l -0.46875,0.40365 q -0.93749,-1.6276 -1.80989,-3.02083 -0.3125,1.45833 -0.98958,2.6302 -0.66406,1.17187 -1.58854,1.86198 l -0.40364,-0.50781 q 1.08073,-0.82032 1.75781,-2.26562 0.67708,-1.45833 0.79427,-3.22916 z m 4.98697,-4.38801 V 263.494 h 6.66665 v 0.58594 z m 0.82031,6.1979 0.58593,-0.20833 q 0.70313,1.54947 1.1849,3.19009 l -0.59896,0.16927 q -0.48177,-1.60156 -1.17187,-3.15103 z m -1.17187,4.06249 v -0.58594 h 4.11457 q 0.92448,-1.65364 1.39322,-3.71093 l 0.61198,0.15625 q -0.40364,1.88802 -1.3151,3.55468 h 2.34374 v 0.58594 z m 15.39058,-10.91143 q -0.14323,3.67186 -0.14323,6.08071 0,1.35416 0.16927,2.20052 0.16927,0.84635 0.54688,1.30208 0.39062,0.45572 0.89843,0.61197 0.50781,0.15625 1.32812,0.15625 1.47135,0 2.70833,-1.11978 1.25,-1.11979 2.0052,-3.17708 l 0.58594,0.23437 q -0.82031,2.2526 -2.21354,3.47656 -1.39322,1.21093 -3.08593,1.21093 -2.03124,0 -2.82551,-1.0677 -0.78125,-1.06771 -0.78125,-3.82812 0,-2.60416 0.14323,-6.09373 z m -36.8749,27.45044 v -9.92185 h 3.45051 v 9.92185 z m 0.62499,-4.9479 v 4.36197 h 2.21354 v -4.36197 z m 0,-0.58594 h 2.21354 v -3.78905 h -2.21354 z m 10.97654,-0.53385 h -1.36719 v 1.74479 h 1.36719 v 0.58593 h -1.36719 v 6.24999 h -0.65104 v -6.24999 h -5.72915 v -0.58593 h 5.72915 v -1.74479 h -5.72915 v -0.57292 h 3.63281 v -2.09634 h -2.99479 v -0.5599 h 2.99479 v -1.51041 h 0.66406 v 1.51041 h 2.9427 v 0.5599 h -2.9427 v 2.09634 h 3.45051 z m -6.80988,3.38541 0.40364,-0.44271 q 1.32813,1.09375 2.39583,2.36979 l -0.45573,0.41666 q -1.02864,-1.23697 -2.34374,-2.34374 z m 12.29163,-4.58332 v -0.59896 h 5.29947 v -2.66927 h 0.67708 v 2.66927 h 5.29947 v 0.59896 h -5.28645 q 0.0911,2.48697 1.53646,4.50519 1.45833,2.01823 3.95832,3.16406 l -0.32552,0.53385 q -2.05729,-0.91146 -3.50259,-2.5651 -1.44531,-1.65364 -1.99219,-3.69791 -0.55989,2.04427 -2.01822,3.69791 -1.45833,1.65364 -3.52864,2.5651 l -0.32552,-0.53385 q 2.5,-1.14583 3.9453,-3.16406 1.45833,-2.01822 1.54948,-4.50519 z m 24.55723,-1.82292 q -0.0391,2.83854 -0.42968,4.64843 -0.37761,1.79687 -1.23698,3.04687 -0.84635,1.23697 -2.39583,2.33072 l -0.4427,-0.44271 q 1.48437,-1.02864 2.29166,-2.18749 0.80729,-1.17187 1.18489,-2.90364 0.3776,-1.74479 0.40365,-4.49218 h -2.96875 v -0.58593 h 7.52603 v 12.18747 h -0.65104 v -11.60154 z m -2.83853,4.42708 q -0.026,0.72916 -0.0521,1.10676 -0.013,0.37761 -0.0651,0.82031 -0.0391,0.44271 -0.0911,0.625 -0.0391,0.18229 -0.18229,0.40365 -0.13021,0.22135 -0.2474,0.28645 -0.11719,0.0651 -0.36458,0.14323 -0.2474,0.0781 -0.49479,0.0911 -0.23438,0 -0.65104,0 -1.15885,0 -1.43229,-0.19531 -0.26042,-0.19531 -0.26042,-1.05469 v -3.85415 l -1.3802,0.31249 -0.0781,-0.58593 1.45833,-0.32552 v -3.5026 h 0.625 v 3.37239 l 3.77603,-0.82031 0.0781,0.57292 -3.85416,0.84635 v 3.95832 q 0,0.53385 0.13021,0.625 0.14323,0.0911 0.95052,0.0911 1.08072,0 1.27604,-0.3776 0.19531,-0.3776 0.27343,-2.59114 z m 17.36975,-3.5026 v -0.58594 h 5.62498 v 0.58594 z m -2.92968,-1.77083 v 11.92705 h -0.63802 v -12.01819 z m 8.763,9.06248 0.10416,0.58593 q -1.49739,0.40365 -3.0078,0.40365 -1.79687,0 -2.86458,-0.63802 -1.05468,-0.65104 -1.05468,-1.73177 0,-0.57291 0.46875,-1.27603 0.48177,-0.71615 1.28906,-1.32813 l 0.42968,0.41667 q -0.71614,0.53385 -1.13281,1.13281 -0.40364,0.59896 -0.40364,1.05468 0,0.82031 0.87239,1.30208 0.87239,0.46875 2.39583,0.46875 1.39322,0 2.90364,-0.39062 z"
       id="text2"
       transform="scale(0.26458333)"
       aria-label="光 明&#10;日 進 月 歩&#10;命 短 し&#10;時 大 切 に"
       inkscape:export-filename="text2.svg"
       inkscape:export-xdpi="2540"
       inkscape:export-ydpi="2540"
       inkscape:label="text_path" />
    <path
       id="text22"
       style="font-size:3.52778px;line-height:1.3;font-family:JiyunoTsubasaFont;-inkscape-font-specification:'JiyunoTsubasaFont, Normal';baseline-shift:baseline;display:inline;overflow:visible;opacity:1;vector-effect:none;stroke-linecap:square;stroke-miterlimit:3.8;paint-order:fill markers stroke;enable-background:accumulate;stop-color:#000000;stop-opacity:1"
       inkscape:label="1"
       d="m 57.978544,60.316223 v 1.295011 h -0.382922 l 0.154512,-0.08372 -0.671793,-1.037146 -0.318327,0.181385 0.609265,0.939477 H 56.59775 v 0.351917 h 0.952913 v 2.005562 h 0.373104 v -2.005562 h 0.468705 v 1.134297 c 0,0.07872 0.0075,0.14681 0.02946,0.207223 0.02197,0.06041 0.06142,0.113925 0.118856,0.144694 0.05683,0.03045 0.120673,0.04143 0.207222,0.05064 0.08655,0.0092 0.194101,0.01344 0.326079,0.01344 h 0.167948 c 0.05065,0 0.104452,-0.0053 0.15813,-0.0155 0.04398,-0.0084 0.07418,-0.01498 0.09767,-0.01964 0.06037,-0.006 0.09947,-0.03669 0.136943,-0.0739 l 0.0021,-0.0021 c 0.02989,-0.02765 0.05093,-0.04748 0.06821,-0.06821 0.03914,-0.04695 0.04396,-0.08167 0.05891,-0.139009 0.01434,-0.05499 0.02344,-0.100089 0.02894,-0.138493 0.0053,-0.03744 0.01062,-0.09615 0.01757,-0.181901 0.0069,-0.08527 0.01176,-0.157833 0.01188,-0.218591 v -0.0036 c 0.0023,-0.05985 0.0052,-0.149531 0.0098,-0.271818 l 0.0036,-0.09767 -0.238228,-0.0155 -0.132809,-0.0083 -0.0036,0.103869 c -0.0057,0.22255 -0.01515,0.399236 -0.02739,0.52555 -0.01224,0.126314 -0.03648,0.211527 -0.03721,0.212906 l -5.16e-4,5.17e-4 -5.17e-4,5.17e-4 c -0.0043,0.0046 -0.02177,0.0194 -0.06718,0.03204 -0.0519,0.01444 -0.133199,0.02377 -0.240296,0.02377 -0.09568,0 -0.165326,4.9e-5 -0.205155,-0.0021 -0.0391,-0.0022 -0.07463,-0.0057 -0.109554,-0.0078 -4.67e-4,-6.2e-5 -0.0012,-5.09e-4 -0.0016,-5.17e-4 h -5.16e-4 c -6.19e-4,-0.0019 -9.57e-4,-0.0038 -0.0016,-0.0057 -0.0011,-0.01177 -0.0021,-0.03472 -0.0021,-0.07028 v -1.109493 h 0.972551 v -0.3514 h -0.771529 c 0.221006,-0.278421 0.410072,-0.569083 0.560689,-0.874882 l 0.04496,-0.09198 -0.332279,-0.15813 -0.04496,0.08992 c -0.141222,0.289167 -0.321631,0.572221 -0.542602,0.849561 l -0.07028,0.08785 0.160197,0.09767 h -0.387057 v -1.295011 z m 0.100252,0.100252 h 0.178801 v 1.295528 h 1.381828 v 0.151412 h -0.971517 v 1.209229 c 0,0.04134 8.34e-4,0.07103 0.0031,0.0894 0.0046,0.01837 0.01149,0.03692 0.02067,0.05529 0.01149,0.01608 0.0348,0.02641 0.06925,0.03101 0.03675,0.0023 0.07545,0.0044 0.116789,0.0067 0.04364,0.0023 0.113863,0.0036 0.210323,0.0036 0.22508,0 0.357314,-0.03657 0.396358,-0.110071 0.03905,-0.0735 0.06397,-0.334519 0.07545,-0.782381 l 0.172599,0.01033 c -0.0046,0.124023 -0.008,0.216238 -0.01033,0.275952 0,0.05742 -0.0034,0.128447 -0.01033,0.213424 -0.0069,0.08498 -0.01298,0.143546 -0.01757,0.1757 -0.0046,0.03215 -0.01361,0.07482 -0.02739,0.127641 -0.01378,0.05283 -0.02624,0.08595 -0.03772,0.09973 -0.01149,0.01378 -0.03216,0.03445 -0.06201,0.06201 -0.02986,0.02986 -0.05662,0.04577 -0.07958,0.04806 -0.02297,0.0046 -0.05822,0.01149 -0.106453,0.02067 -0.04823,0.0092 -0.09434,0.01395 -0.137977,0.01395 h -0.168981 c -0.259531,0 -0.42145,-0.01722 -0.485759,-0.05168 -0.06431,-0.03445 -0.09612,-0.122706 -0.09612,-0.2651 v -1.233517 h -0.668693 v 2.005046 h -0.172083 v -2.005046 h -0.954463 v -0.151412 h 1.381827 z m 1.209229,0.203088 0.151412,0.07235 c -0.151584,0.307762 -0.339743,0.601916 -0.564823,0.882117 l -0.141594,-0.0863 c 0.22508,-0.282498 0.410311,-0.571886 0.555005,-0.868164 z m -2.242757,0.0036 0.561206,0.868164 -0.144694,0.07906 -0.561206,-0.864547 z" />
    <path
       id="path26"
       style="font-size:3.52778px;line-height:1.3;font-family:JiyunoTsubasaFont;-inkscape-font-specification:'JiyunoTsubasaFont, Normal';baseline-shift:baseline;display:inline;overflow:visible;opacity:1;vector-effect:none;stroke-linecap:square;paint-order:stroke fill markers;enable-background:accumulate;stop-color:#000000;stop-opacity:1"
       d="m 62.656295,60.425777 v 1.373043 c 0,0.388061 -0.04006,0.696597 -0.117306,0.921907 -0.07722,0.222266 -0.211838,0.425611 -0.406176,0.613399 l -0.07596,0.0739 0.267167,0.250114 0.06873,-0.0646 c 0.304342,-0.290913 0.508589,-0.671385 0.588595,-1.099158 h 0.860412 v 1.474329 h 0.373104 v -3.542936 z m -1.484664,0.06666 v 2.25361 h 1.326534 v -2.25361 z m 1.585433,0.03411 h 1.35754 v 3.341915 h -0.1726 v -1.474329 h -1.054199 c -0.06431,0.452456 -0.252466,0.827971 -0.564823,1.126546 L 62.202576,63.40699 c 0.204408,-0.197519 0.347782,-0.41588 0.430464,-0.65474 0.08268,-0.241157 0.124024,-0.559426 0.124024,-0.954464 z m -1.484664,0.06563 h 1.126546 V 62.64528 H 61.2724 Z m 1.653646,0.0894 v 0.675411 h 1.015958 v -0.675411 z m -1.485181,0.06925 v 0.761193 h 0.795817 v -0.761193 z m 1.5844,0.03049 h 0.816487 v 0.476456 h -0.816487 z m -1.484148,0.07028 h 0.59583 v 0.560689 h -0.59583 z m 1.384929,0.656807 v 0.3514 c 0,0.124023 -0.0069,0.252812 -0.02067,0.386023 h 1.036629 v -0.737423 z m 0.09922,0.100769 h 0.816487 v 0.537435 h -0.83199 c 0.0074,-0.09702 0.0155,-0.194828 0.0155,-0.287321 z m -1.5844,0.05788 v 0.826823 h 0.795817 v -0.826823 z m 0.100252,0.100769 h 0.59583 v 0.626835 h -0.59583 z"
       inkscape:label="2" />
    <path
       id="path28"
       style="font-size:3.52778px;line-height:1.3;font-family:JiyunoTsubasaFont;-inkscape-font-specification:'JiyunoTsubasaFont, Normal';baseline-shift:baseline;display:inline;overflow:visible;opacity:1;vector-effect:none;stroke-linecap:square;paint-order:stroke fill markers;enable-background:accumulate;stop-color:#000000;stop-opacity:1"
       d="m 56.869051,65.029113 v 2.930054 h 2.597774 v -2.930054 z m 0.100252,0.100769 h 2.397787 v 2.728516 h -2.397787 z m 0.172083,0.15503 v 1.09554 h 2.053621 v -1.09554 z m 0.100769,0.09973 h 1.853634 v 0.896586 h -1.853634 z m -0.100769,1.150834 v 1.167888 h 2.053621 v -1.167888 z m 0.100769,0.09922 h 1.853634 v 0.968933 h -1.853634 z"
       inkscape:label="3" />
    <path
       id="path30"
       style="font-size:3.52778px;line-height:1.3;font-family:JiyunoTsubasaFont;-inkscape-font-specification:'JiyunoTsubasaFont, Normal';baseline-shift:baseline;display:inline;overflow:visible;opacity:1;vector-effect:none;stroke-linecap:square;paint-order:stroke fill markers;enable-background:accumulate;stop-color:#000000;stop-opacity:1"
       d="m 62.346753,64.837394 c -0.0836,0.302183 -0.199903,0.58976 -0.340031,0.869714 -0.164044,-0.18696 -0.397892,-0.449341 -0.61805,-0.671793 l -0.06821,-0.06873 -0.265617,0.242362 0.0739,0.07441 c 0.195854,0.193576 0.385978,0.395542 0.570508,0.605131 l 0.06615,0.07441 0.141077,-0.144177 c 0.0021,0.07425 -0.110355,0.205229 -0.150379,0.255282 l -0.05478,0.07028 0.101286,0.101802 h -0.771529 v 0.3514 h 0.519865 v 1.956987 h 0.36897 v -0.712618 c 0.07918,0.06483 0.129768,0.148228 0.250114,0.187585 0.218571,0.07286 0.523316,0.10542 0.923974,0.10542 h 1.226282 l 0.0155,-0.351917 h -1.234033 c -0.396594,0 -0.680076,-0.03547 -0.834058,-0.09147 -0.149535,-0.05438 -0.259888,-0.155814 -0.347782,-0.308508 v -1.019576 l 0.04703,0.04651 0.07028,-0.08785 c 0.04205,-0.05368 0.0744,-0.126874 0.113172,-0.187069 v 1.417485 h 2.142504 v -0.345199 h -0.871264 v -0.306958 h 0.748275 v -0.340031 h -0.748275 v -0.292489 h 0.748275 v -0.342098 h -0.748275 v -0.283186 h 0.820622 V 65.29473 h -0.728638 c 0.03774,-0.09366 0.07784,-0.188035 0.107487,-0.276985 l 0.03514,-0.109555 -0.357601,-0.06821 -0.02739,0.08371 c -0.04688,0.146501 -0.09506,0.2643 -0.144177,0.371037 H 62.58033 c 0.03358,-0.09984 0.07043,-0.203836 0.09147,-0.284737 l 0.02532,-0.101803 c -0.11718,-0.02204 -0.233561,-0.04694 -0.350366,-0.0708 z m 0.06563,0.116789 0.162264,0.031 c -0.02986,0.114837 -0.07384,0.251837 -0.131258,0.410311 h 0.751375 c 0.05971,-0.121726 0.116959,-0.269061 0.172083,-0.441316 l 0.158646,0.031 c -0.04364,0.130914 -0.09664,0.267914 -0.158646,0.410311 h 0.775146 v 0.147795 h -0.820105 v 0.482658 h 0.747758 v 0.141076 h -0.747758 v 0.492477 h 0.747758 v 0.141593 h -0.747758 v 0.506429 h 0.871782 v 0.144694 h -1.943034 v -1.677934 c -0.08728,0.186036 -0.18506,0.347956 -0.293006,0.485759 l -0.124023,-0.124023 c 0.259531,-0.333026 0.452455,-0.727087 0.578776,-1.18184 z m -1.09554,0.151928 c 0.220486,0.222783 0.412607,0.426847 0.575675,0.612883 l -0.117305,0.103353 c -0.186036,-0.2113 -0.37764,-0.41456 -0.575159,-0.609782 z m 1.102775,0.437183 v 0.482658 h 0.740523 v -0.482658 z m 0.09973,0.09922 h 0.541053 v 0.283186 h -0.541053 z m -0.09973,0.524515 v 0.492477 h 0.740523 v -0.492477 z m 0.09973,0.100769 h 0.541053 v 0.293006 h -0.541053 z m -1.388545,0.07855 h 0.689363 v 1.074869 c 0.09876,0.179146 0.236563,0.300527 0.413412,0.364836 0.176848,0.06431 0.466236,0.09664 0.868164,0.09664 h 1.129646 l -0.0067,0.151412 h -1.130164 c -0.395038,0 -0.69212,-0.03313 -0.891935,-0.09974 -0.19752,-0.06431 -0.324988,-0.156003 -0.382406,-0.275435 v 0.795817 h -0.168982 v -1.956986 h -0.520381 z m 1.28881,0.454752 v 0.506429 h 0.740523 v -0.506429 z m 0.09973,0.09922 h 0.541053 v 0.306958 h -0.541053 z"
       inkscape:label="4" />
    <path
       id="path32"
       style="font-size:3.52778px;line-height:1.3;font-family:JiyunoTsubasaFont;-inkscape-font-specification:'JiyunoTsubasaFont, Normal';baseline-shift:baseline;display:inline;overflow:visible;opacity:1;vector-effect:none;stroke-linecap:square;paint-order:stroke fill markers;enable-background:accumulate;stop-color:#000000;stop-opacity:1"
       d="m 66.064356,64.992423 v 3.562057 h 0.371036 v -1.488282 h 1.713074 v 1.488282 h 0.373104 v -3.562057 z m 0.09973,0.09974 h 2.25671 v 3.362585 H 68.248718 V 66.966463 H 66.33669 v 1.488281 h -0.172599 z m 0.172599,0.155029 v 0.678511 h 1.912028 v -0.678511 z m 0.0987,0.100252 h 1.713074 v 0.478524 h -1.713074 z m -0.0987,0.730188 v 0.740523 h 1.912028 v -0.740523 z m 0.0987,0.100252 h 1.713074 v 0.541053 h -1.713074 z"
       inkscape:label="5" />
    <path
       id="path34"
       style="font-size:3.52778px;line-height:1.3;font-family:JiyunoTsubasaFont;-inkscape-font-specification:'JiyunoTsubasaFont, Normal';baseline-shift:baseline;display:inline;overflow:visible;opacity:1;vector-effect:none;stroke-linecap:square;paint-order:stroke fill markers;enable-background:accumulate;stop-color:#000000;stop-opacity:1"
       d="m 71.583915,64.865299 v 0.970483 H 71.08007 V 65.005859 H 70.7111 v 0.829923 h -0.595829 v 0.351917 h 0.636654 c -0.136956,0.324837 -0.327562,0.622634 -0.589628,0.8847 l -0.07648,0.07596 0.275435,0.236161 0.06666,-0.06408 c 0.305625,-0.300886 0.531959,-0.644077 0.679546,-1.027327 l 0.03514,-0.09198 -0.03307,-0.01344 h 0.474389 v 1.389062 c -0.432598,0.155062 -0.709175,0.211857 -1.278991,0.274919 l -0.117306,0.01344 0.09974,0.349849 0.08372,-0.0098 c 1.150087,-0.129273 2.026606,-0.504158 2.650485,-1.101742 l 0.103352,0.146761 0.29714,-0.187585 -0.05684,-0.08578 C 73.17974,66.695412 72.956263,66.435669 72.713045,66.187699 h 0.669727 v -0.351917 h -1.423686 v -0.265616 h 1.189592 V 65.2229 h -1.189592 v -0.357601 z m 0.09922,0.09922 h 0.1757 v 0.358634 h 1.188558 v 0.147795 h -1.188558 v 0.465088 h 1.423169 v 0.151928 h -1.423169 v 1.395264 h -0.1757 v -1.395264 h -1.467611 v -0.151928 h 0.596346 v -0.829924 h 0.168466 v 0.829924 h 0.702799 z m 0.896069,1.216463 c 0.268718,0.264124 0.502984,0.547425 0.7028,0.850594 l -0.131258,0.08268 -0.103353,-0.144694 c -0.606337,0.624711 -1.502061,1.003671 -2.687175,1.136882 l -0.04444,-0.155029 c 1.162146,-0.128617 2.040644,-0.498046 2.635498,-1.108977 -0.153881,-0.199816 -0.320566,-0.388492 -0.499711,-0.56534 z m -0.620117,0.0067 h 0.445451 l -0.105937,0.0801 0.08217,0.0801 c 0.146982,0.145097 0.302349,0.331115 0.432015,0.49196 -0.162587,0.206106 -0.603058,0.446649 -0.853695,0.58446 z m -1.09244,0.0067 0.148312,0.06201 c -0.142398,0.369774 -0.361563,0.700502 -0.657841,0.992187 l -0.124024,-0.106453 c 0.280202,-0.280202 0.491156,-0.596347 0.633553,-0.947746 z"
       inkscape:label="6" />
    <path
       id="path36"
       style="font-size:3.52778px;line-height:1.3;font-family:JiyunoTsubasaFont;-inkscape-font-specification:'JiyunoTsubasaFont, Normal';baseline-shift:baseline;display:inline;overflow:visible;opacity:1;vector-effect:none;stroke-linecap:square;paint-order:stroke fill markers;enable-background:accumulate;stop-color:#000000;stop-opacity:1"
       d="m 58.023503,69.457267 -0.02739,0.02119 c -0.4277,0.33718 -0.92247,0.643343 -1.484147,0.916223 l -0.0863,0.04289 0.142627,0.321944 0.09198,-0.04289 c 0.01512,-0.0072 0.02578,-0.01803 0.04083,-0.02532 v 1.746147 h 1.398364 v -1.749764 h -1.39268 c 0.18008,-0.08741 0.332997,-0.173024 0.492477,-0.2651 v 0.151412 h 1.937349 v -0.131259 c 0.149278,0.085 0.275903,0.131794 0.433565,0.209807 h -1.349271 v 2.48822 h 0.371036 v -2.138888 h 0.716753 v 1.476396 h 0.368969 v -1.76165 l 0.08992,0.04289 0.142627,-0.321944 -0.08578,-0.04289 c -0.561678,-0.27288 -1.056964,-0.579043 -1.484664,-0.916223 l -0.02739,-0.02119 z m 0.03462,0.100252 h 0.220141 c 0.434083,0.342213 0.934942,0.651467 1.502234,0.927075 l -0.06201,0.141077 c -0.571886,-0.273311 -1.08865,-0.59158 -1.550293,-0.954464 -0.461643,0.362884 -0.978407,0.681153 -1.550293,0.954464 l -0.06201,-0.141077 c 0.567293,-0.275608 1.068152,-0.584862 1.502234,-0.927075 z m 0.110071,0.231511 c 0.210172,0.162034 0.380325,0.28605 0.612365,0.429947 h -1.247985 c 0.25367,-0.137739 0.425447,-0.267913 0.63562,-0.429947 z m -0.868164,0.5302 h 1.736328 v 0.155029 h -1.736328 z m 1.019576,0.434082 h 1.257804 v 1.62574 h -0.168982 v -1.477946 h -0.916223 v 2.139405 h -0.172599 z m -1.519287,0.03411 h 1.198893 v 1.550293 h -1.198893 z m 0.165364,0.151929 v 1.246952 h 0.868164 v -1.246952 z m 0.100769,0.09973 h 0.668176 v 1.046965 h -0.668176 z"
       inkscape:label="7" />
    <path
       id="path38"
       style="font-size:3.52778px;line-height:1.3;font-family:JiyunoTsubasaFont;-inkscape-font-specification:'JiyunoTsubasaFont, Normal';baseline-shift:baseline;display:inline;overflow:visible;opacity:1;vector-effect:none;stroke-linecap:square;paint-order:stroke fill markers;enable-background:accumulate;stop-color:#000000;stop-opacity:1"
       d="m 61.447066,69.38647 -0.01757,0.09767 c -0.08578,0.442454 -0.215339,0.824013 -0.384472,1.1467 l -0.04909,0.09353 0.109554,0.04909 h -0.0646 v 0.359151 h 0.655773 c -0.0281,0.255342 -0.08814,0.497992 -0.187068,0.711067 -0.113843,0.24301 -0.259522,0.429082 -0.435633,0.562757 l -0.08165,0.06253 0.230477,0.288872 0.07803,-0.05684 c 0.175614,-0.131093 0.324205,-0.306784 0.447001,-0.523482 0.08935,-0.154638 0.140754,-0.336997 0.195337,-0.517281 0.12138,0.197782 0.244627,0.3981 0.373104,0.621151 l 0.02739,0.04858 h -0.07596 v 0.355534 H 64.35955 V 72.32996 h -0.555005 c 0.128076,-0.261343 0.21764,-0.528363 0.27957,-0.818038 l 0.02119,-0.09405 -0.07596,-0.01964 h 0.181384 v -1.257805 h -1.704806 v -0.169498 h 1.818494 v -0.355534 h -1.963188 v 0.173633 h -0.634586 c 0.01767,-0.0772 0.03523,-0.149888 0.05064,-0.242363 l 0.0155,-0.09767 z m 0.0801,0.116272 0.151412,0.02739 c -0.02297,0.137804 -0.04789,0.257061 -0.07545,0.358117 h 0.802535 v 0.151929 h -0.423747 v 0.833541 h 0.468706 v 0.158646 H 61.9783 c -0.0023,0.04364 -0.0078,0.102207 -0.01705,0.1757 0.197518,0.303169 0.385678,0.608461 0.564823,0.916223 l -0.124023,0.106971 c -0.165365,-0.287092 -0.324643,-0.553685 -0.478524,-0.799435 -0.05512,0.257234 -0.142567,0.489376 -0.261999,0.696082 -0.117134,0.206705 -0.257062,0.370749 -0.42013,0.492476 l -0.10697,-0.134358 c 0.190629,-0.144694 0.345657,-0.34451 0.465088,-0.599447 0.11943,-0.257234 0.189652,-0.541856 0.210323,-0.854212 h -0.668693 v -0.158646 h 0.675411 v -0.833541 h -0.262 c -0.08038,0.261828 -0.172082,0.496094 -0.275435,0.702799 l -0.144694,-0.06563 c 0.174552,-0.333026 0.305465,-0.724446 0.392741,-1.174605 z m 0.933793,0.213424 h 1.763717 v 0.155029 h -1.763717 z m -0.837675,0.424263 h 0.09353 v 0.633037 h -0.341581 c 0.09338,-0.188523 0.173807,-0.402652 0.248047,-0.633037 z m 0.458887,0 h 0.368969 v 0.633037 H 62.08217 Z m 0.468188,0.09922 h 1.560628 v 1.057817 h -1.560628 z m 0.168982,0.144694 v 0.772046 h 1.215947 v -0.772046 z m 0.09922,0.100252 h 1.017509 v 0.572058 h -1.017509 z m -0.750342,0.648023 h 0.382922 v 0.265617 h 0.24443 l -0.152446,0.05478 0.04289,0.09767 c 0.113782,0.255473 0.209764,0.515824 0.290938,0.779281 h -0.437699 l 0.214974,-0.183452 -0.04083,-0.07235 c -0.173877,-0.298712 -0.357741,-0.596044 -0.548803,-0.890385 0.0022,-0.01907 0.0019,-0.03421 0.0036,-0.05116 z m 0.84801,0.265617 h 0.818038 l -0.0057,0.02945 c -0.07636,0.335115 -0.194767,0.63159 -0.340031,0.902271 h -0.128674 l -0.01757,-0.0584 c -0.08629,-0.293841 -0.192367,-0.579734 -0.318327,-0.857312 z m 0.908989,0.05064 0.161747,0.04134 c -0.0712,0.333026 -0.187011,0.646529 -0.347782,0.940511 h 0.620117 v 0.155029 H 62.36794 v -0.155029 h 1.088306 c 0.163068,-0.291685 0.286287,-0.618968 0.36897,-0.981852 z m -0.992188,0.0072 c 0.124024,0.27331 0.228181,0.554488 0.313159,0.843876 l -0.158129,0.04496 C 62.903078,72.062448 62.799726,71.7842 62.677999,71.510888 Z"
       inkscape:label="8" />
    <path
       id="path40"
       style="font-size:3.52778px;line-height:1.3;font-family:JiyunoTsubasaFont;-inkscape-font-specification:'JiyunoTsubasaFont, Normal';baseline-shift:baseline;display:inline;overflow:visible;opacity:1;vector-effect:none;stroke-linecap:square;paint-order:stroke fill markers;enable-background:accumulate;stop-color:#000000;stop-opacity:1"
       d="m 66.168225,69.593693 -0.0041,0.09767 c -0.02531,0.616543 -0.03721,1.156292 -0.03721,1.617472 0,0.496341 0.06273,0.848743 0.224793,1.070219 v 0.0021 h 0.0021 c 0.164466,0.221087 0.449978,0.321945 0.825789,0.321945 0.322422,0 0.622266,-0.118966 0.88315,-0.345716 0.261292,-0.229546 0.464469,-0.551698 0.613399,-0.960665 l 0.03307,-0.08992 -0.340031,-0.136942 -0.03514,0.0956 c -0.129082,0.351639 -0.298573,0.617097 -0.503845,0.800985 v 0.0021 c -0.203565,0.18428 -0.416444,0.269751 -0.650606,0.269751 -0.138344,0 -0.24477,-0.0141 -0.319877,-0.03721 -0.07034,-0.02164 -0.133078,-0.06284 -0.19172,-0.131258 -0.05188,-0.06262 -0.09525,-0.160039 -0.12299,-0.29869 -0.02785,-0.13923 -0.04289,-0.327547 -0.04289,-0.56224 0,-0.422913 0.01198,-0.958759 0.03721,-1.605586 l 0.0036,-0.101803 z m 0.09612,0.101802 0.1757,0.0036 c -0.02527,0.647678 -0.03824,1.183792 -0.03824,1.608687 0,0.238861 0.0151,0.433106 0.04496,0.582393 0.02986,0.149288 0.07809,0.263779 0.144694,0.344165 0.0689,0.08039 0.148139,0.134704 0.237712,0.162264 0.08957,0.02756 0.206705,0.04134 0.351399,0.04134 0.259531,0 0.498563,-0.0991 0.716753,-0.296622 0.220486,-0.197519 0.39699,-0.477375 0.5302,-0.840259 l 0.155029,0.06201 c -0.144694,0.397334 -0.339743,0.703947 -0.585494,0.91984 -0.24575,0.213596 -0.517912,0.320394 -0.816488,0.320394 -0.35829,0 -0.607657,-0.09434 -0.747757,-0.28267 -0.137804,-0.188332 -0.206706,-0.525951 -0.206706,-1.012858 0,-0.459346 0.01297,-0.996781 0.03824,-1.612305 z"
       inkscape:label="9" />
    <path
       id="path42"
       style="font-size:3.52778px;line-height:1.3;font-family:JiyunoTsubasaFont;-inkscape-font-specification:'JiyunoTsubasaFont, Normal';baseline-shift:baseline;display:inline;overflow:visible;opacity:1;vector-effect:none;stroke-linecap:square;paint-order:stroke fill markers;enable-background:accumulate;stop-color:#000000;stop-opacity:1"
       d="m 58.564555,74.002209 v 0.399976 h -0.793233 v 0.347782 h 0.793233 v 0.355534 h -0.867131 v -0.869198 h -1.113627 v 2.826184 h 1.113627 v -0.99012 h 0.283187 l -0.174149,0.189136 0.0801,0.06666 c 0.227755,0.191675 0.430293,0.393844 0.607715,0.607198 l 0.06615,0.08217 0.269751,-0.24598 -0.06253,-0.07441 c -0.18831,-0.225054 -0.400232,-0.431561 -0.633036,-0.624768 h 0.984436 v 1.654163 h 0.371037 v -1.654163 h 0.363285 V 75.7189 H 59.49008 v -0.261999 h 0.363285 v -0.3514 h -0.914156 v -0.355534 h 0.779797 v -0.347782 h -0.779797 v -0.399976 z m 0.09974,0.100252 h 0.1757 v 0.399459 h 0.778764 v 0.148312 H 58.83999 v 0.554488 h 0.913123 v 0.151928 h -0.361735 v 0.461471 h 0.361735 v 0.155029 h -0.361735 v 1.653646 h -0.172599 v -1.653646 h -1.51567 v -0.155029 h 1.51567 v -0.461471 h -1.51567 V 75.20472 H 58.66429 V 74.650232 H 57.872091 V 74.50192 h 0.792199 z m -1.980757,0.234095 h 0.912606 v 2.625162 h -0.912606 z m 0.165364,0.158646 v 1.002523 h 0.585494 v -1.002523 z m 0.100253,0.100252 h 0.384989 v 0.803052 H 56.94915 Z m 0.748274,0.861447 h 1.421619 V 75.7189 h -1.421619 z m -0.848527,0.195853 v 1.153935 h 0.585494 v -1.153935 z m 0.100253,0.09922 h 0.384989 v 0.954981 H 56.94915 Z m 1.108976,0.382922 c 0.234267,0.192926 0.445221,0.402272 0.633553,0.627352 l -0.120406,0.110071 c -0.181442,-0.218189 -0.388147,-0.424895 -0.620117,-0.620117 z"
       inkscape:label="10" />
    <path
       id="path44"
       style="font-size:3.52778px;line-height:1.3;font-family:JiyunoTsubasaFont;-inkscape-font-specification:'JiyunoTsubasaFont, Normal';baseline-shift:baseline;display:inline;overflow:visible;opacity:1;vector-effect:none;stroke-linecap:square;paint-order:stroke fill markers;enable-background:accumulate;stop-color:#000000;stop-opacity:1"
       d="m 62.505916,74.074039 v 0.707451 h -1.402498 v 0.357084 h 1.380794 c -0.03283,0.374771 -0.149087,0.725056 -0.373104,1.035079 -0.244261,0.341087 -0.576164,0.60923 -1.003556,0.805119 l -0.103869,0.04651 0.191719,0.310576 0.0801,-0.03514 c 0.377667,-0.166268 0.700134,-0.400861 0.966866,-0.703317 0.219951,-0.249408 0.350104,-0.480226 0.458886,-0.779797 0.106833,0.299204 0.235405,0.530606 0.453203,0.779797 0.264418,0.302533 0.585234,0.536987 0.960665,0.703317 l 0.0801,0.03721 0.19172,-0.312643 -0.10387,-0.04702 c -0.427452,-0.195916 -0.761083,-0.463314 -1.007691,-0.804602 -0.221994,-0.309995 -0.336281,-0.660198 -0.368969,-1.035079 h 1.380794 V 74.78149 h -1.402498 v -0.707451 z m 0.09974,0.100769 h 0.1788 v 0.706417 h 1.402499 v 0.15813 H 62.78807 c 0.01608,0.438676 0.151759,0.836182 0.406693,1.192175 0.257234,0.355994 0.605992,0.635046 1.046965,0.837159 l -0.08578,0.141076 c -0.362883,-0.160771 -0.672138,-0.386826 -0.927075,-0.678511 -0.254938,-0.291685 -0.430637,-0.617649 -0.5271,-0.978235 -0.09876,0.360586 -0.276583,0.68655 -0.533817,0.978235 -0.257234,0.291685 -0.568613,0.51774 -0.933794,0.678511 l -0.08578,-0.141076 c 0.440972,-0.202113 0.788927,-0.481165 1.043863,-0.837159 0.257234,-0.355993 0.393717,-0.753499 0.409795,-1.192175 h -1.398881 v -0.15813 h 1.402498 z"
       inkscape:label="11" />
    <path
       id="path49"
       style="font-size:3.52778px;line-height:1.3;font-family:JiyunoTsubasaFont;-inkscape-font-specification:'JiyunoTsubasaFont, Normal';baseline-shift:baseline;display:inline;overflow:visible;opacity:1;vector-effect:none;stroke-linecap:square;stroke-miterlimit:1.9;paint-order:stroke fill markers;enable-background:accumulate;stop-color:#000000;stop-opacity:1"
       d="m 65.835434,74.120209 v 0.945678 l -0.398425,0.0894 0.04858,0.353983 0.349849,-0.0801 v 0.896069 c 0,0.08084 0.0051,0.148441 0.01964,0.207223 0.01451,0.05878 0.03673,0.112031 0.08785,0.150378 l 0.0016,0.0021 c 0.0513,0.03665 0.1059,0.04725 0.176216,0.05684 0.07032,0.0096 0.15647,0.01344 0.261483,0.01344 h 0.1757 0.0021 c 0.313975,-0.03619 0.431094,-0.252473 0.458887,-0.498161 v -0.0021 c 0.0093,-0.07894 0.01517,-0.151896 0.01757,-0.220658 v -0.0021 c 0.0047,-0.06865 0.0094,-0.164673 0.01395,-0.293006 l 0.0036,-0.0956 -0.353467,-0.03101 -0.0036,0.10542 c -0.0068,0.193854 -0.01781,0.346492 -0.02946,0.45682 -0.01163,0.110242 -0.03288,0.185095 -0.03307,0.185518 l -5.17e-4,5.17e-4 c -0.002,0.0027 -0.0124,0.0141 -0.04858,0.0248 -0.04154,0.01229 -0.109463,0.0217 -0.198954,0.0217 -0.06932,0 -0.123638,-0.0022 -0.160197,-0.0057 -0.01206,-0.0012 -0.01461,-0.0016 -0.01602,-0.0016 h -5.17e-4 c -6.84e-4,-4.6e-5 -0.0018,-1.37e-4 -0.0031,-5.17e-4 -0.003,-0.01761 -0.0057,-0.0437 -0.0057,-0.08216 v -0.966866 l 1.030945,-0.226343 -0.04858,-0.34985 -0.982369,0.214974 v -0.869197 z m 0.09819,0.0925 h 0.165364 v 0.892452 l 0.998906,-0.217041 0.02067,0.151412 -1.019576,0.223759 v 1.047482 c 0,0.09417 0.01114,0.149287 0.03411,0.165364 0.02527,0.01608 0.109269,0.02429 0.251664,0.02429 0.190629,0 0.302996,-0.03365 0.337447,-0.100252 0.03445,-0.06661 0.05857,-0.294786 0.07235,-0.68523 l 0.155029,0.01344 c -0.0046,0.128617 -0.0088,0.2264 -0.01344,0.293006 -0.0023,0.06661 -0.0084,0.138953 -0.01757,0.217041 -0.0069,0.07809 -0.01458,0.13321 -0.02377,0.165364 -0.0069,0.03215 -0.02331,0.06793 -0.04858,0.10697 -0.02297,0.03905 -0.04444,0.06397 -0.06511,0.07545 -0.02067,0.01149 -0.053,0.02446 -0.09664,0.03824 -0.04364,0.01378 -0.0871,0.02147 -0.130741,0.02377 h -0.172599 c -0.204409,0 -0.330557,-0.01722 -0.378789,-0.05168 -0.04593,-0.03445 -0.06873,-0.12747 -0.06873,-0.279052 v -1.019576 l -0.365353,0.08268 -0.02067,-0.155029 0.386023,-0.0863 z m 0.715201,0.0832 v 0.355533 h 0.775664 c -0.0091,0.424173 -0.0368,0.794875 -0.0956,1.066602 -0.09227,0.423147 -0.24854,0.848285 -0.879016,1.285193 l -0.09767,0.06821 0.261483,0.261482 0.06821,-0.04857 c 0.280813,-0.198221 0.500767,-0.410463 0.658358,-0.640788 0.160382,-0.233285 0.274861,-0.514486 0.343648,-0.841809 0.06536,-0.302871 0.09446,-0.698709 0.10542,-1.150318 h 0.677995 v 3.068547 h 0.373104 v -3.42408 z m 0.101286,0.106453 H 68.7412 v 3.224609 h -0.172082 v -3.06958 h -0.868164 c -0.0069,0.500688 -0.04479,0.910654 -0.113688,1.229899 -0.06661,0.31695 -0.176046,0.585667 -0.327629,0.806153 -0.149287,0.21819 -0.360242,0.423574 -0.633553,0.6165 l -0.117306,-0.117306 c 0.261828,-0.181441 0.463768,-0.374367 0.606165,-0.578776 0.142397,-0.206706 0.247071,-0.462446 0.313676,-0.767912 0.06661,-0.307762 0.102378,-0.703948 0.10697,-1.188558 h -0.785482 z"
       transform="translate(0.0056786,-1.7666667e-4)"
       inkscape:label="12" />
    <path
       id="path51"
       style="font-size:3.52778px;line-height:1.3;font-family:JiyunoTsubasaFont;-inkscape-font-specification:'JiyunoTsubasaFont, Normal';baseline-shift:baseline;display:inline;overflow:visible;opacity:1;vector-effect:none;stroke-linecap:square;paint-order:stroke fill markers;enable-background:accumulate;stop-color:#000000;stop-opacity:1"
       d="m 70.501811,74.193412 v 3.396175 h 0.369486 v -3.343465 z m 0.09973,0.115755 0.168982,0.02429 v 3.155363 h -0.168982 z m 0.843876,0.237712 v 0.355533 h 1.689303 v -0.355533 z m 0.100253,0.09973 h 1.488281 v 0.155029 h -1.488281 z m 0.210323,0.898137 -0.06873,0.05271 c -0.14973,0.113506 -0.271231,0.238332 -0.363285,0.37517 -0.08964,0.134454 -0.14056,0.264412 -0.14056,0.392741 0,0.223159 0.119514,0.416842 0.326595,0.54467 h 0.0015 c 0.209536,0.125211 0.479952,0.183451 0.808736,0.183451 0.27533,0 0.54989,-0.03771 0.822172,-0.111104 l 0.08785,-0.02325 -0.06253,-0.351917 -0.103353,0.02739 c -0.259205,0.06704 -0.507736,0.09973 -0.744141,0.09973 -0.25846,0 -0.453508,-0.03991 -0.58601,-0.111104 -0.132855,-0.07337 -0.177767,-0.148621 -0.177767,-0.257866 0,-0.05032 0.02473,-0.12618 0.08785,-0.220658 l 0.0021,-0.0021 c 0.06601,-0.09433 0.156873,-0.187053 0.275435,-0.275436 l 0.09405,-0.07028 z m -0.0072,0.132291 0.113688,0.110071 c -0.12632,0.09417 -0.226228,0.194073 -0.299723,0.299723 -0.0712,0.10565 -0.10697,0.198667 -0.10697,0.279053 0,0.144694 0.07711,0.259703 0.230993,0.344682 0.153882,0.08268 0.365353,0.124023 0.63407,0.124023 0.245751,0 0.501491,-0.03445 0.767912,-0.103353 l 0.0279,0.15503 c -0.264124,0.0712 -0.529395,0.106453 -0.795817,0.106453 -0.316948,0 -0.569761,-0.05593 -0.758093,-0.168465 -0.186035,-0.114837 -0.279053,-0.267741 -0.279053,-0.45837 0,-0.101056 0.04134,-0.213423 0.124024,-0.337447 0.08498,-0.12632 0.198667,-0.243453 0.341064,-0.3514 z" />
  </g>
</svg>
